<svg width="189" height="51" viewBox="0 0 189 51" fill="none" xmlns="http://www.w3.org/2000/svg">
<path d="M17.6204 50.256C14.2924 50.256 11.3057 49.488 8.66041 47.952C6.01508 46.3733 3.92441 44.24 2.38841 41.552C0.852414 38.864 0.0630811 35.8347 0.0204144 32.464V3.28C0.0204144 2.29867 0.319081 1.50933 0.916414 0.911999C1.55641 0.314665 2.34575 0.0159988 3.28441 0.0159988C4.26575 0.0159988 5.05508 0.314665 5.65241 0.911999C6.24975 1.50933 6.54841 2.29867 6.54841 3.28V20.56C8.04175 18.768 9.83375 17.36 11.9244 16.336C14.0577 15.2693 16.3831 14.736 18.9004 14.736C22.0151 14.736 24.8097 15.5253 27.2844 17.104C29.7591 18.64 31.7004 20.752 33.1084 23.44C34.5591 26.0853 35.2844 29.0933 35.2844 32.464C35.2844 35.8347 34.4951 38.864 32.9164 41.552C31.3804 44.24 29.2897 46.3733 26.6444 47.952C23.9991 49.488 20.9911 50.256 17.6204 50.256ZM17.6204 44.496C19.7964 44.496 21.7377 43.984 23.4444 42.96C25.1511 41.8933 26.4951 40.4427 27.4764 38.608C28.5004 36.7733 29.0124 34.7253 29.0124 32.464C29.0124 30.16 28.5004 28.112 27.4764 26.32C26.4951 24.528 25.1511 23.12 23.4444 22.096C21.7377 21.0293 19.7964 20.496 17.6204 20.496C15.4871 20.496 13.5457 21.0293 11.7964 22.096C10.0897 23.12 8.74575 24.528 7.76441 26.32C6.78308 28.112 6.29241 30.16 6.29241 32.464C6.29241 34.7253 6.78308 36.7733 7.76441 38.608C8.74575 40.4427 10.0897 41.8933 11.7964 42.96C13.5457 43.984 15.4871 44.496 17.6204 44.496ZM59.2791 50.256C56.1644 50.256 53.3697 49.488 50.8951 47.952C48.4204 46.3733 46.4577 44.2613 45.0071 41.616C43.5991 38.928 42.8951 35.8987 42.8951 32.528C42.8951 29.1573 43.6631 26.128 45.1991 23.44C46.7777 20.752 48.8897 18.64 51.5351 17.104C54.2231 15.5253 57.2311 14.736 60.5591 14.736C63.8871 14.736 66.8737 15.5253 69.5191 17.104C72.1644 18.64 74.2551 20.752 75.7911 23.44C77.3698 26.128 78.1591 29.1573 78.1591 32.528H75.6631C75.6631 35.8987 74.9377 38.928 73.4871 41.616C72.0791 44.2613 70.1378 46.3733 67.6631 47.952C65.1884 49.488 62.3938 50.256 59.2791 50.256ZM60.5591 44.496C62.7351 44.496 64.6764 43.984 66.3831 42.96C68.0897 41.8933 69.4337 40.464 70.4151 38.672C71.3964 36.8373 71.8871 34.7893 71.8871 32.528C71.8871 30.224 71.3964 28.176 70.4151 26.384C69.4337 24.5493 68.0897 23.12 66.3831 22.096C64.6764 21.0293 62.7351 20.496 60.5591 20.496C58.4258 20.496 56.4844 21.0293 54.7351 22.096C53.0284 23.12 51.6631 24.5493 50.6391 26.384C49.6577 28.176 49.1671 30.224 49.1671 32.528C49.1671 34.7893 49.6577 36.8373 50.6391 38.672C51.6631 40.464 53.0284 41.8933 54.7351 42.96C56.4844 43.984 58.4258 44.496 60.5591 44.496ZM74.8951 50.064C73.9564 50.064 73.1671 49.7653 72.5271 49.168C71.9298 48.528 71.6311 47.7387 71.6311 46.8V37.008L72.8471 30.224L78.1591 32.528V46.8C78.1591 47.7387 77.8391 48.528 77.1991 49.168C76.6018 49.7653 75.8338 50.064 74.8951 50.064ZM90.8693 48.784L86.5173 44.944L108.277 16.208L112.565 20.048L90.8693 48.784ZM88.9493 50C86.9439 50 85.9413 48.9973 85.9413 46.992C85.9413 44.9867 86.9439 43.984 88.9493 43.984H110.773C112.779 43.984 113.781 44.9867 113.781 46.992C113.781 48.9973 112.779 50 110.773 50H88.9493ZM88.3093 21.008C86.3039 21.008 85.3013 20.0053 85.3013 18C85.3013 15.9947 86.3039 14.992 88.3093 14.992H110.133C112.139 14.992 113.141 15.9947 113.141 18C113.141 20.0053 112.139 21.008 110.133 21.008H88.3093ZM135.112 50.256C131.998 50.256 129.203 49.488 126.728 47.952C124.254 46.3733 122.291 44.2613 120.84 41.616C119.432 38.928 118.728 35.8987 118.728 32.528C118.728 29.1573 119.496 26.128 121.032 23.44C122.611 20.752 124.723 18.64 127.368 17.104C130.056 15.5253 133.064 14.736 136.392 14.736C139.72 14.736 142.707 15.5253 145.352 17.104C147.998 18.64 150.088 20.752 151.624 23.44C153.203 26.128 153.992 29.1573 153.992 32.528H151.496C151.496 35.8987 150.771 38.928 149.32 41.616C147.912 44.2613 145.971 46.3733 143.496 47.952C141.022 49.488 138.227 50.256 135.112 50.256ZM136.392 44.496C138.568 44.496 140.51 43.984 142.216 42.96C143.923 41.8933 145.267 40.464 146.248 38.672C147.23 36.8373 147.72 34.7893 147.72 32.528C147.72 30.224 147.23 28.176 146.248 26.384C145.267 24.5493 143.923 23.12 142.216 22.096C140.51 21.0293 138.568 20.496 136.392 20.496C134.259 20.496 132.318 21.0293 130.568 22.096C128.862 23.12 127.496 24.5493 126.472 26.384C125.491 28.176 125 30.224 125 32.528C125 34.7893 125.491 36.8373 126.472 38.672C127.496 40.464 128.862 41.8933 130.568 42.96C132.318 43.984 134.259 44.496 136.392 44.496ZM150.728 50.064C149.79 50.064 149 49.7653 148.36 49.168C147.763 48.528 147.464 47.7387 147.464 46.8V37.008L148.68 30.224L153.992 32.528V46.8C153.992 47.7387 153.672 48.528 153.032 49.168C152.435 49.7653 151.667 50.064 150.728 50.064ZM166.511 28.112C166.511 25.552 167.129 23.2693 168.367 21.264C169.647 19.216 171.353 17.5947 173.487 16.4C175.62 15.2053 177.967 14.608 180.527 14.608C183.087 14.608 184.985 15.0347 186.223 15.888C187.503 16.6987 187.993 17.68 187.695 18.832C187.567 19.4293 187.311 19.8987 186.927 20.24C186.585 20.5387 186.18 20.7307 185.711 20.816C185.241 20.9013 184.729 20.88 184.175 20.752C181.444 20.1973 178.991 20.1547 176.815 20.624C174.639 21.0933 172.911 21.968 171.631 23.248C170.393 24.528 169.775 26.1493 169.775 28.112H166.511ZM166.575 50C165.551 50 164.761 49.744 164.207 49.232C163.652 48.6773 163.375 47.8667 163.375 46.8V18.192C163.375 17.168 163.652 16.3787 164.207 15.824C164.761 15.2693 165.551 14.992 166.575 14.992C167.641 14.992 168.431 15.2693 168.943 15.824C169.497 16.336 169.775 17.1253 169.775 18.192V46.8C169.775 47.824 169.497 48.6133 168.943 49.168C168.431 49.7227 167.641 50 166.575 50Z" fill="white"/>
</svg>
