<svg width="249" height="67" viewBox="0 0 249 67" fill="none" xmlns="http://www.w3.org/2000/svg">
<path d="M23.8247 66.336C19.4567 66.336 15.5367 65.328 12.0647 63.312C8.59271 61.24 5.84871 58.44 3.83271 54.912C1.81671 51.384 0.780711 47.408 0.724711 42.984V4.68C0.724711 3.392 1.11671 2.356 1.90071 1.572C2.74071 0.787998 3.77671 0.395998 5.00871 0.395998C6.29671 0.395998 7.33271 0.787998 8.11671 1.572C8.90071 2.356 9.29271 3.392 9.29271 4.68V27.36C11.2527 25.008 13.6047 23.16 16.3487 21.816C19.1487 20.416 22.2007 19.716 25.5047 19.716C29.5927 19.716 33.2607 20.752 36.5087 22.824C39.7567 24.84 42.3047 27.612 44.1527 31.14C46.0567 34.612 47.0087 38.56 47.0087 42.984C47.0087 47.408 45.9727 51.384 43.9007 54.912C41.8847 58.44 39.1407 61.24 35.6687 63.312C32.1967 65.328 28.2487 66.336 23.8247 66.336ZM23.8247 58.776C26.6807 58.776 29.2287 58.104 31.4687 56.76C33.7087 55.36 35.4727 53.456 36.7607 51.048C38.1047 48.64 38.7767 45.952 38.7767 42.984C38.7767 39.96 38.1047 37.272 36.7607 34.92C35.4727 32.568 33.7087 30.72 31.4687 29.376C29.2287 27.976 26.6807 27.276 23.8247 27.276C21.0247 27.276 18.4767 27.976 16.1807 29.376C13.9407 30.72 12.1767 32.568 10.8887 34.92C9.60071 37.272 8.95671 39.96 8.95671 42.984C8.95671 45.952 9.60071 48.64 10.8887 51.048C12.1767 53.456 13.9407 55.36 16.1807 56.76C18.4767 58.104 21.0247 58.776 23.8247 58.776ZM78.6059 66.336C74.5179 66.336 70.8499 65.328 67.6019 63.312C64.3539 61.24 61.7779 58.468 59.8739 54.996C58.0259 51.468 57.1019 47.492 57.1019 43.068C57.1019 38.644 58.1099 34.668 60.1259 31.14C62.1979 27.612 64.9699 24.84 68.4419 22.824C71.9699 20.752 75.9179 19.716 80.2859 19.716C84.6539 19.716 88.5739 20.752 92.0459 22.824C95.5179 24.84 98.2619 27.612 100.278 31.14C102.35 34.668 103.386 38.644 103.386 43.068H100.11C100.11 47.492 99.1579 51.468 97.2539 54.996C95.4059 58.468 92.8579 61.24 89.6099 63.312C86.3619 65.328 82.6939 66.336 78.6059 66.336ZM80.2859 58.776C83.1419 58.776 85.6899 58.104 87.9299 56.76C90.1699 55.36 91.9339 53.484 93.2219 51.132C94.5099 48.724 95.1539 46.036 95.1539 43.068C95.1539 40.044 94.5099 37.356 93.2219 35.004C91.9339 32.596 90.1699 30.72 87.9299 29.376C85.6899 27.976 83.1419 27.276 80.2859 27.276C77.4859 27.276 74.9379 27.976 72.6419 29.376C70.4019 30.72 68.6099 32.596 67.2659 35.004C65.9779 37.356 65.3339 40.044 65.3339 43.068C65.3339 46.036 65.9779 48.724 67.2659 51.132C68.6099 53.484 70.4019 55.36 72.6419 56.76C74.9379 58.104 77.4859 58.776 80.2859 58.776ZM99.1019 66.084C97.8699 66.084 96.8339 65.692 95.9939 64.908C95.2099 64.068 94.8179 63.032 94.8179 61.8V48.948L96.4139 40.044L103.386 43.068V61.8C103.386 63.032 102.966 64.068 102.126 64.908C101.342 65.692 100.334 66.084 99.1019 66.084ZM120.172 64.404L114.46 59.364L143.02 21.648L148.648 26.688L120.172 64.404ZM117.652 66C115.02 66 113.704 64.684 113.704 62.052C113.704 59.42 115.02 58.104 117.652 58.104H146.296C148.928 58.104 150.244 59.42 150.244 62.052C150.244 64.684 148.928 66 146.296 66H117.652ZM116.812 27.948C114.18 27.948 112.864 26.632 112.864 24C112.864 21.368 114.18 20.052 116.812 20.052H145.456C148.088 20.052 149.404 21.368 149.404 24C149.404 26.632 148.088 27.948 145.456 27.948H116.812ZM178.345 66.336C174.257 66.336 170.589 65.328 167.341 63.312C164.093 61.24 161.517 58.468 159.613 54.996C157.765 51.468 156.841 47.492 156.841 43.068C156.841 38.644 157.849 34.668 159.865 31.14C161.937 27.612 164.709 24.84 168.181 22.824C171.709 20.752 175.657 19.716 180.025 19.716C184.393 19.716 188.313 20.752 191.785 22.824C195.257 24.84 198.001 27.612 200.017 31.14C202.089 34.668 203.125 38.644 203.125 43.068H199.849C199.849 47.492 198.897 51.468 196.993 54.996C195.145 58.468 192.597 61.24 189.349 63.312C186.101 65.328 182.433 66.336 178.345 66.336ZM180.025 58.776C182.881 58.776 185.429 58.104 187.669 56.76C189.909 55.36 191.673 53.484 192.961 51.132C194.249 48.724 194.893 46.036 194.893 43.068C194.893 40.044 194.249 37.356 192.961 35.004C191.673 32.596 189.909 30.72 187.669 29.376C185.429 27.976 182.881 27.276 180.025 27.276C177.225 27.276 174.677 27.976 172.381 29.376C170.141 30.72 168.349 32.596 167.005 35.004C165.717 37.356 165.073 40.044 165.073 43.068C165.073 46.036 165.717 48.724 167.005 51.132C168.349 53.484 170.141 55.36 172.381 56.76C174.677 58.104 177.225 58.776 180.025 58.776ZM198.841 66.084C197.609 66.084 196.573 65.692 195.733 64.908C194.949 64.068 194.557 63.032 194.557 61.8V48.948L196.153 40.044L203.125 43.068V61.8C203.125 63.032 202.705 64.068 201.865 64.908C201.081 65.692 200.073 66.084 198.841 66.084ZM219.66 37.272C219.66 33.912 220.472 30.916 222.096 28.284C223.776 25.596 226.016 23.468 228.816 21.9C231.616 20.332 234.696 19.548 238.056 19.548C241.416 19.548 243.908 20.108 245.532 21.228C247.212 22.292 247.856 23.58 247.464 25.092C247.296 25.876 246.96 26.492 246.456 26.94C246.008 27.332 245.476 27.584 244.86 27.696C244.244 27.808 243.572 27.78 242.844 27.612C239.26 26.884 236.04 26.828 233.184 27.444C230.328 28.06 228.06 29.208 226.38 30.888C224.756 32.568 223.944 34.696 223.944 37.272H219.66ZM219.744 66C218.4 66 217.364 65.664 216.636 64.992C215.908 64.264 215.544 63.2 215.544 61.8V24.252C215.544 22.908 215.908 21.872 216.636 21.144C217.364 20.416 218.4 20.052 219.744 20.052C221.144 20.052 222.18 20.416 222.852 21.144C223.58 21.816 223.944 22.852 223.944 24.252V61.8C223.944 63.144 223.58 64.18 222.852 64.908C222.18 65.636 221.144 66 219.744 66Z" fill="white"/>
<path d="M12.0647 63.312L11.5522 64.1708L11.5626 64.1768L12.0647 63.312ZM3.83271 54.912L2.96447 55.4081L3.83271 54.912ZM0.724711 42.984H-0.275369L-0.275208 42.9967L0.724711 42.984ZM1.90071 1.572L1.21839 0.840943L1.20579 0.852704L1.1936 0.864892L1.90071 1.572ZM9.29271 27.36H8.29271V30.1221L10.0609 28.0002L9.29271 27.36ZM16.3487 21.816L16.7886 22.7141L16.7959 22.7104L16.3487 21.816ZM36.5087 22.824L35.9709 23.6671L35.9813 23.6736L36.5087 22.824ZM44.1527 31.14L43.2669 31.604L43.2713 31.6125L43.2759 31.6208L44.1527 31.14ZM43.9007 54.912L43.0384 54.4055L43.0325 54.4159L43.9007 54.912ZM35.6687 63.312L36.1709 64.1768L36.1812 64.1707L35.6687 63.312ZM31.4687 56.76L31.9832 57.6175L31.991 57.6128L31.9987 57.608L31.4687 56.76ZM36.7607 51.048L35.8875 50.5606L35.8832 50.5685L35.8789 50.5763L36.7607 51.048ZM36.7607 34.92L35.8836 35.4003L35.888 35.4083L35.8925 35.4161L36.7607 34.92ZM31.4687 29.376L30.9387 30.224L30.9464 30.2288L30.9542 30.2335L31.4687 29.376ZM16.1807 29.376L16.6952 30.2335L16.7013 30.2298L16.1807 29.376ZM10.8887 34.92L11.7658 35.4003L10.8887 34.92ZM10.8887 51.048L10.0069 51.5197L10.8887 51.048ZM16.1807 56.76L15.6507 57.608L15.663 57.6157L15.6755 57.623L16.1807 56.76ZM23.8247 65.336C19.6171 65.336 15.8731 64.367 12.5668 62.4472L11.5626 64.1768C15.2004 66.2891 19.2963 67.336 23.8247 67.336V65.336ZM12.5772 62.4533C9.25377 60.47 6.63199 57.7952 4.70095 54.4159L2.96447 55.4081C5.06543 59.0848 7.93166 62.01 11.5523 64.1707L12.5772 62.4533ZM4.70095 54.4159C2.77653 51.0481 1.77868 47.2411 1.72463 42.9713L-0.275208 42.9967C-0.217256 47.5749 0.856894 51.7199 2.96447 55.4081L4.70095 54.4159ZM1.72471 42.984V4.68H-0.275289V42.984H1.72471ZM1.72471 4.68C1.72471 3.61086 2.04177 2.84515 2.60782 2.27911L1.1936 0.864892C0.19165 1.86685 -0.275289 3.17314 -0.275289 4.68H1.72471ZM2.58303 2.30305C3.22372 1.70508 4.00998 1.396 5.00871 1.396V-0.604002C3.54345 -0.604002 2.2577 -0.12908 1.21839 0.840943L2.58303 2.30305ZM5.00871 1.396C6.07785 1.396 6.84356 1.71306 7.4096 2.27911L8.82382 0.864892C7.82186 -0.137063 6.51557 -0.604002 5.00871 -0.604002V1.396ZM7.4096 2.27911C7.97565 2.84515 8.29271 3.61086 8.29271 4.68H10.2927C10.2927 3.17314 9.82577 1.86685 8.82382 0.864892L7.4096 2.27911ZM8.29271 4.68V27.36H10.2927V4.68H8.29271ZM10.0609 28.0002C11.931 25.7561 14.1712 23.996 16.7886 22.7141L15.9088 20.9179C13.0382 22.324 10.5744 24.2599 8.52449 26.7198L10.0609 28.0002ZM16.7959 22.7104C19.4494 21.3837 22.3471 20.716 25.5047 20.716V18.716C22.0543 18.716 18.848 19.4483 15.9015 20.9216L16.7959 22.7104ZM25.5047 20.716C29.4143 20.716 32.8935 21.7039 35.9709 23.6671L37.0465 21.9809C33.6279 19.8001 29.7711 18.716 25.5047 18.716V20.716ZM35.9813 23.6736C39.0711 25.5914 41.4982 28.2273 43.2669 31.604L45.0385 30.676C43.1113 26.9966 40.4424 24.0886 37.0361 21.9744L35.9813 23.6736ZM43.2759 31.6208C45.09 34.9288 46.0087 38.708 46.0087 42.984H48.0087C48.0087 38.412 47.0235 34.2952 45.0295 30.6592L43.2759 31.6208ZM46.0087 42.984C46.0087 47.2449 45.013 51.0435 43.0384 54.4056L44.763 55.4184C46.9325 51.7245 48.0087 47.5711 48.0087 42.984H46.0087ZM43.0325 54.4159C41.1014 57.7952 38.4797 60.47 35.1563 62.4533L36.1812 64.1707C39.8018 62.01 42.668 59.0848 44.769 55.4081L43.0325 54.4159ZM35.1666 62.4472C31.8623 64.3658 28.0908 65.336 23.8247 65.336V67.336C28.4066 67.336 32.5311 66.2902 36.1708 64.1768L35.1666 62.4472ZM23.8247 59.776C26.8445 59.776 29.5735 59.0633 31.9832 57.6175L30.9542 55.9025C28.884 57.1447 26.5169 57.776 23.8247 57.776V59.776ZM31.9987 57.608C34.392 56.1122 36.275 54.0762 37.6425 51.5197L35.8789 50.5763C34.6704 52.8358 33.0255 54.6078 30.9387 55.912L31.9987 57.608ZM37.6339 51.5354C39.0674 48.9671 39.7767 46.1092 39.7767 42.984H37.7767C37.7767 45.7948 37.1421 48.3129 35.8875 50.5606L37.6339 51.5354ZM39.7767 42.984C39.7767 39.8067 39.069 36.944 37.629 34.4239L35.8925 35.4161C37.1404 37.6 37.7767 40.1133 37.7767 42.984H39.7767ZM37.6378 34.4397C36.2669 31.9363 34.3796 29.9563 31.9832 28.5185L30.9542 30.2335C33.0378 31.4837 34.6785 33.1997 35.8836 35.4003L37.6378 34.4397ZM31.9987 28.528C29.5869 27.0206 26.8523 26.276 23.8247 26.276V28.276C26.5091 28.276 28.8705 28.9314 30.9387 30.224L31.9987 28.528ZM23.8247 26.276C20.849 26.276 18.1196 27.0225 15.6601 28.5222L16.7013 30.2298C18.8339 28.9295 21.2005 28.276 23.8247 28.276V26.276ZM15.6662 28.5185C13.2698 29.9563 11.3825 31.9363 10.0116 34.4397L11.7658 35.4003C12.9709 33.1997 14.6116 31.4837 16.6952 30.2335L15.6662 28.5185ZM10.0116 34.4397C8.63313 36.9569 7.95671 39.8139 7.95671 42.984H9.95671C9.95671 40.1061 10.5683 37.5871 11.7658 35.4003L10.0116 34.4397ZM7.95671 42.984C7.95671 46.1019 8.6347 48.9542 10.0069 51.5197L11.7705 50.5763C10.5667 48.3258 9.95671 45.8021 9.95671 42.984H7.95671ZM10.0069 51.5197C11.3744 54.0762 13.2575 56.1122 15.6507 57.608L16.7107 55.912C14.624 54.6078 12.979 52.8358 11.7705 50.5763L10.0069 51.5197ZM15.6755 57.623C18.1329 59.0615 20.8568 59.776 23.8247 59.776V57.776C21.1926 57.776 18.8205 57.1465 16.6859 55.897L15.6755 57.623ZM67.6019 63.312L67.064 64.1551L67.0745 64.1616L67.6019 63.312ZM59.8739 54.996L58.988 55.46L58.9925 55.4685L58.9971 55.4768L59.8739 54.996ZM60.1259 31.14L59.2635 30.6335L59.2576 30.6439L60.1259 31.14ZM68.4419 22.824L68.944 23.6888L68.9483 23.6863L68.4419 22.824ZM92.0459 22.824L91.5334 23.6828L91.5437 23.6888L92.0459 22.824ZM100.278 31.14L99.4096 31.6362L99.4156 31.6464L100.278 31.14ZM103.386 43.068V44.068H104.386V43.068H103.386ZM100.11 43.068V42.068H99.1099V43.068H100.11ZM97.2539 54.996L96.3738 54.5211L96.3711 54.5261L97.2539 54.996ZM89.6099 63.312L90.1373 64.1617L90.1477 64.1551L89.6099 63.312ZM87.9299 56.76L88.4444 57.6175L88.4522 57.6128L88.4599 57.608L87.9299 56.76ZM93.2219 51.132L94.099 51.6123L94.1037 51.6037L93.2219 51.132ZM93.2219 35.004L92.34 35.4757L92.3448 35.4843L93.2219 35.004ZM87.9299 29.376L87.3999 30.224L87.4076 30.2288L87.4154 30.2335L87.9299 29.376ZM72.6419 29.376L73.1564 30.2335L73.1625 30.2298L72.6419 29.376ZM67.2659 35.004L66.3927 34.5166L66.3888 34.5237L67.2659 35.004ZM67.2659 51.132L66.3841 51.6037L66.3907 51.616L66.3976 51.6281L67.2659 51.132ZM72.6419 56.76L72.1119 57.608L72.1242 57.6157L72.1367 57.623L72.6419 56.76ZM95.9939 64.908L95.2628 65.5903L95.2864 65.6155L95.3116 65.6391L95.9939 64.908ZM94.8179 48.948L93.8336 48.7716L93.8179 48.8591V48.948H94.8179ZM96.4139 40.044L96.8118 39.1266L95.6525 38.6238L95.4296 39.8676L96.4139 40.044ZM103.386 43.068H104.386V42.4117L103.784 42.1506L103.386 43.068ZM102.126 64.908L102.833 65.6151L102.126 64.908ZM78.6059 65.336C74.6908 65.336 71.2078 64.3732 68.1292 62.4624L67.0745 64.1616C70.4919 66.2828 74.345 67.336 78.6059 67.336V65.336ZM68.1397 62.4689C65.0374 60.4899 62.5763 57.8441 60.7507 54.5152L58.9971 55.4768C60.9795 59.0919 63.6704 61.9901 67.0641 64.1551L68.1397 62.4689ZM60.7597 54.532C58.9947 51.1625 58.1019 47.3486 58.1019 43.068H56.1019C56.1019 47.6354 57.057 51.7735 58.988 55.46L60.7597 54.532ZM58.1019 43.068C58.1019 38.8021 59.072 34.9998 60.9941 31.6361L59.2576 30.6439C57.1477 34.3362 56.1019 38.4859 56.1019 43.068H58.1019ZM60.9882 31.6464C62.9747 28.2639 65.6239 25.6166 68.944 23.6888L67.9397 21.9592C64.3159 24.0634 61.4211 26.9601 59.2636 30.6336L60.9882 31.6464ZM68.9483 23.6863C72.3123 21.7106 76.0835 20.716 80.2859 20.716V18.716C75.7523 18.716 71.6274 19.7934 67.9355 21.9617L68.9483 23.6863ZM80.2859 20.716C84.4884 20.716 88.2288 21.7106 91.5334 23.6827L92.5583 21.9653C88.919 19.7934 84.8193 18.716 80.2859 18.716V20.716ZM91.5437 23.6888C94.8614 25.6152 97.4799 28.2592 99.4096 31.6361L101.146 30.6439C99.0438 26.9648 96.1743 24.0648 92.548 21.9592L91.5437 23.6888ZM99.4156 31.6464C101.39 35.0085 102.386 38.8071 102.386 43.068H104.386C104.386 38.4809 103.31 34.3275 101.14 30.6336L99.4156 31.6464ZM103.386 42.068H100.11V44.068H103.386V42.068ZM99.1099 43.068C99.1099 47.3437 98.1912 51.1537 96.3739 54.5211L98.1339 55.4709C100.125 51.7823 101.11 47.6403 101.11 43.068H99.1099ZM96.3711 54.5261C94.6023 57.8494 92.1717 60.4916 89.0721 62.4689L90.1477 64.1551C93.544 61.9884 96.2095 59.0866 98.1366 55.4658L96.3711 54.5261ZM89.0825 62.4624C86.0039 64.3732 82.521 65.336 78.6059 65.336V67.336C82.8668 67.336 86.7198 66.2828 90.1372 64.1616L89.0825 62.4624ZM80.2859 59.776C83.3057 59.776 86.0346 59.0633 88.4444 57.6175L87.4154 55.9025C85.3451 57.1447 82.9781 57.776 80.2859 57.776V59.776ZM88.4599 57.608C90.8475 56.1158 92.73 54.1122 94.099 51.6123L92.3448 50.6517C91.1378 52.8558 89.4923 54.6042 87.3999 55.912L88.4599 57.608ZM94.1037 51.6037C95.4759 49.0382 96.1539 46.1859 96.1539 43.068H94.1539C94.1539 45.8861 93.5439 48.4098 92.3401 50.6603L94.1037 51.6037ZM96.1539 43.068C96.1539 39.8979 95.4775 37.0409 94.099 34.5237L92.3448 35.4843C93.5423 37.6711 94.1539 40.1901 94.1539 43.068H96.1539ZM94.1037 34.5323C92.7344 31.9725 90.8466 29.9599 88.4444 28.5185L87.4154 30.2335C89.4931 31.4801 91.1333 33.2195 92.3401 35.4757L94.1037 34.5323ZM88.4599 28.528C86.048 27.0206 83.3135 26.276 80.2859 26.276V28.276C82.9703 28.276 85.3317 28.9314 87.3999 30.224L88.4599 28.528ZM80.2859 26.276C77.3101 26.276 74.5807 27.0225 72.1213 28.5222L73.1625 30.2298C75.295 28.9295 77.6616 28.276 80.2859 28.276V26.276ZM72.1274 28.5185C69.7291 29.9575 67.8169 31.9649 66.3927 34.5166L68.1391 35.4914C69.4028 33.2271 71.0747 31.4825 73.1564 30.2335L72.1274 28.5185ZM66.3888 34.5237C65.0103 37.0409 64.3339 39.8979 64.3339 43.068H66.3339C66.3339 40.1901 66.9455 37.6711 68.143 35.4843L66.3888 34.5237ZM64.3339 43.068C64.3339 46.1859 65.0119 49.0382 66.3841 51.6037L68.1477 50.6603C66.9439 48.4098 66.3339 45.8861 66.3339 43.068H64.3339ZM66.3976 51.6281C67.8214 54.1198 69.7281 56.1182 72.1119 57.608L73.1719 55.912C71.0756 54.6018 69.3983 52.8482 68.1341 50.6359L66.3976 51.6281ZM72.1367 57.623C74.5941 59.0615 77.318 59.776 80.2859 59.776V57.776C77.6538 57.776 75.2817 57.1465 73.1471 55.897L72.1367 57.623ZM99.1019 65.084C98.1031 65.084 97.3169 64.7749 96.6762 64.1769L95.3116 65.6391C96.3509 66.6091 97.6366 67.084 99.1019 67.084V65.084ZM96.7249 64.2257C96.127 63.585 95.8179 62.7987 95.8179 61.8H93.8179C93.8179 63.2653 94.2928 64.551 95.2628 65.5903L96.7249 64.2257ZM95.8179 61.8V48.948H93.8179V61.8H95.8179ZM95.8022 49.1244L97.3982 40.2204L95.4296 39.8676L93.8336 48.7716L95.8022 49.1244ZM96.016 40.9614L102.988 43.9854L103.784 42.1506L96.8118 39.1266L96.016 40.9614ZM102.386 43.068V61.8H104.386V43.068H102.386ZM102.386 61.8C102.386 62.7778 102.064 63.5561 101.419 64.2009L102.833 65.6151C103.868 64.5799 104.386 63.2862 104.386 61.8H102.386ZM101.419 64.2009C100.844 64.7757 100.101 65.084 99.1019 65.084V67.084C100.567 67.084 101.84 66.6083 102.833 65.6151L101.419 64.2009ZM120.172 64.404L119.511 65.1538L120.32 65.868L120.97 65.0066L120.172 64.404ZM114.46 59.364L113.663 58.7603L113.103 59.5L113.799 60.1138L114.46 59.364ZM143.02 21.648L143.687 20.903L142.878 20.1787L142.223 21.0443L143.02 21.648ZM148.648 26.688L149.446 27.2906L150 26.5566L149.315 25.943L148.648 26.688ZM120.834 63.6542L115.122 58.6142L113.799 60.1138L119.511 65.1538L120.834 63.6542ZM115.257 59.9677L143.817 22.2517L142.223 21.0443L113.663 58.7603L115.257 59.9677ZM142.353 22.393L147.981 27.4329L149.315 25.943L143.687 20.903L142.353 22.393ZM147.85 26.0854L119.374 63.8014L120.97 65.0066L149.446 27.2906L147.85 26.0854ZM117.652 65C116.49 65 115.803 64.7102 115.398 64.3059C114.994 63.9016 114.704 63.2139 114.704 62.052H112.704C112.704 63.5221 113.072 64.8084 113.984 65.7201C114.896 66.6318 116.182 67 117.652 67V65ZM114.704 62.052C114.704 60.8901 114.994 60.2024 115.398 59.7981C115.803 59.3938 116.49 59.104 117.652 59.104V57.104C116.182 57.104 114.896 57.4722 113.984 58.3839C113.072 59.2956 112.704 60.5819 112.704 62.052H114.704ZM117.652 59.104H146.296V57.104H117.652V59.104ZM146.296 59.104C147.458 59.104 148.146 59.3938 148.55 59.7981C148.954 60.2024 149.244 60.8901 149.244 62.052H151.244C151.244 60.5819 150.876 59.2956 149.964 58.3839C149.053 57.4722 147.766 57.104 146.296 57.104V59.104ZM149.244 62.052C149.244 63.2139 148.954 63.9016 148.55 64.3059C148.146 64.7102 147.458 65 146.296 65V67C147.766 67 149.053 66.6318 149.964 65.7201C150.876 64.8084 151.244 63.5221 151.244 62.052H149.244ZM146.296 65H117.652V67H146.296V65ZM116.812 26.948C115.65 26.948 114.963 26.6582 114.558 26.2539C114.154 25.8496 113.864 25.1619 113.864 24H111.864C111.864 25.4701 112.232 26.7564 113.144 27.6681C114.056 28.5798 115.342 28.948 116.812 28.948V26.948ZM113.864 24C113.864 22.8381 114.154 22.1504 114.558 21.7461C114.963 21.3418 115.65 21.052 116.812 21.052V19.052C115.342 19.052 114.056 19.4202 113.144 20.3319C112.232 21.2436 111.864 22.5299 111.864 24H113.864ZM116.812 21.052H145.456V19.052H116.812V21.052ZM145.456 21.052C146.618 21.052 147.306 21.3418 147.71 21.7461C148.114 22.1504 148.404 22.8381 148.404 24H150.404C150.404 22.5299 150.036 21.2436 149.124 20.3319C148.213 19.4202 146.926 19.052 145.456 19.052V21.052ZM148.404 24C148.404 25.1619 148.114 25.8496 147.71 26.2539C147.306 26.6582 146.618 26.948 145.456 26.948V28.948C146.926 28.948 148.213 28.5798 149.124 27.6681C150.036 26.7564 150.404 25.4701 150.404 24H148.404ZM145.456 26.948H116.812V28.948H145.456V26.948ZM167.341 63.312L166.804 64.1551L166.814 64.1616L167.341 63.312ZM159.613 54.996L158.728 55.46L158.732 55.4685L158.737 55.4768L159.613 54.996ZM159.865 31.14L159.003 30.6335L158.997 30.6439L159.865 31.14ZM168.181 22.824L168.684 23.6888L168.688 23.6863L168.181 22.824ZM191.785 22.824L191.273 23.6828L191.283 23.6888L191.785 22.824ZM200.017 31.14L199.149 31.6362L199.155 31.6464L200.017 31.14ZM203.125 43.068V44.068H204.125V43.068H203.125ZM199.849 43.068V42.068H198.849V43.068H199.849ZM196.993 54.996L196.113 54.5211L196.111 54.5261L196.993 54.996ZM189.349 63.312L189.877 64.1617L189.887 64.1551L189.349 63.312ZM187.669 56.76L188.184 57.6175L188.192 57.6128L188.199 57.608L187.669 56.76ZM192.961 51.132L193.839 51.6123L193.843 51.6037L192.961 51.132ZM192.961 35.004L192.08 35.4757L192.084 35.4843L192.961 35.004ZM187.669 29.376L187.139 30.224L187.147 30.2288L187.155 30.2335L187.669 29.376ZM172.381 29.376L172.896 30.2335L172.902 30.2298L172.381 29.376ZM167.005 35.004L166.132 34.5166L166.128 34.5237L167.005 35.004ZM167.005 51.132L166.124 51.6037L166.13 51.616L166.137 51.6281L167.005 51.132ZM172.381 56.76L171.851 57.608L171.864 57.6157L171.876 57.623L172.381 56.76ZM195.733 64.908L195.002 65.5903L195.026 65.6155L195.051 65.6391L195.733 64.908ZM194.557 48.948L193.573 48.7716L193.557 48.8591V48.948H194.557ZM196.153 40.044L196.551 39.1266L195.392 38.6238L195.169 39.8676L196.153 40.044ZM203.125 43.068H204.125V42.4117L203.523 42.1506L203.125 43.068ZM201.865 64.908L202.573 65.6151L201.865 64.908ZM178.345 65.336C174.43 65.336 170.947 64.3732 167.869 62.4624L166.814 64.1616C170.232 66.2828 174.085 67.336 178.345 67.336V65.336ZM167.879 62.4689C164.777 60.4899 162.316 57.8441 160.49 54.5152L158.737 55.4768C160.719 59.0919 163.41 61.9901 166.804 64.1551L167.879 62.4689ZM160.499 54.532C158.734 51.1625 157.841 47.3486 157.841 43.068H155.841C155.841 47.6354 156.797 51.7735 158.728 55.46L160.499 54.532ZM157.841 43.068C157.841 38.8021 158.812 34.9998 160.734 31.6361L158.997 30.6439C156.887 34.3362 155.841 38.4859 155.841 43.068H157.841ZM160.728 31.6464C162.714 28.2639 165.363 25.6166 168.684 23.6888L167.679 21.9592C164.055 24.0634 161.161 26.9601 159.003 30.6336L160.728 31.6464ZM168.688 23.6863C172.052 21.7106 175.823 20.716 180.025 20.716V18.716C175.492 18.716 171.367 19.7934 167.675 21.9617L168.688 23.6863ZM180.025 20.716C184.228 20.716 187.968 21.7106 191.273 23.6827L192.298 21.9653C188.659 19.7934 184.559 18.716 180.025 18.716V20.716ZM191.283 23.6888C194.601 25.6152 197.22 28.2592 199.149 31.6361L200.886 30.6439C198.783 26.9648 195.914 24.0648 192.288 21.9592L191.283 23.6888ZM199.155 31.6464C201.13 35.0085 202.125 38.8071 202.125 43.068H204.125C204.125 38.4809 203.049 34.3275 200.88 30.6336L199.155 31.6464ZM203.125 42.068H199.849V44.068H203.125V42.068ZM198.849 43.068C198.849 47.3437 197.931 51.1537 196.113 54.5211L197.873 55.4709C199.864 51.7823 200.849 47.6403 200.849 43.068H198.849ZM196.111 54.5261C194.342 57.8494 191.911 60.4916 188.812 62.4689L189.887 64.1551C193.284 61.9884 195.949 59.0866 197.876 55.4658L196.111 54.5261ZM188.822 62.4624C185.743 64.3732 182.261 65.336 178.345 65.336V67.336C182.606 67.336 186.459 66.2828 189.877 64.1616L188.822 62.4624ZM180.025 59.776C183.045 59.776 185.774 59.0633 188.184 57.6175L187.155 55.9025C185.085 57.1447 182.718 57.776 180.025 57.776V59.776ZM188.199 57.608C190.587 56.1158 192.47 54.1122 193.839 51.6123L192.084 50.6517C190.877 52.8558 189.232 54.6042 187.139 55.912L188.199 57.608ZM193.843 51.6037C195.215 49.0382 195.893 46.1859 195.893 43.068H193.893C193.893 45.8861 193.283 48.4098 192.08 50.6603L193.843 51.6037ZM195.893 43.068C195.893 39.8979 195.217 37.0409 193.839 34.5237L192.084 35.4843C193.282 37.6711 193.893 40.1901 193.893 43.068H195.893ZM193.843 34.5323C192.474 31.9725 190.586 29.9599 188.184 28.5185L187.155 30.2335C189.233 31.4801 190.873 33.2195 192.08 35.4757L193.843 34.5323ZM188.199 28.528C185.788 27.0206 183.053 26.276 180.025 26.276V28.276C182.71 28.276 185.071 28.9314 187.139 30.224L188.199 28.528ZM180.025 26.276C177.05 26.276 174.32 27.0225 171.861 28.5222L172.902 30.2298C175.035 28.9295 177.401 28.276 180.025 28.276V26.276ZM171.867 28.5185C169.469 29.9575 167.557 31.9649 166.132 34.5166L167.879 35.4914C169.142 33.2271 170.814 31.4825 172.896 30.2335L171.867 28.5185ZM166.128 34.5237C164.75 37.0409 164.073 39.8979 164.073 43.068H166.073C166.073 40.1901 166.685 37.6711 167.883 35.4843L166.128 34.5237ZM164.073 43.068C164.073 46.1859 164.751 49.0382 166.124 51.6037L167.887 50.6603C166.683 48.4098 166.073 45.8861 166.073 43.068H164.073ZM166.137 51.6281C167.561 54.1198 169.468 56.1182 171.851 57.608L172.911 55.912C170.815 54.6018 169.138 52.8482 167.874 50.6359L166.137 51.6281ZM171.876 57.623C174.334 59.0615 177.058 59.776 180.025 59.776V57.776C177.393 57.776 175.021 57.1465 172.887 55.897L171.876 57.623ZM198.841 65.084C197.843 65.084 197.056 64.7749 196.416 64.1769L195.051 65.6391C196.09 66.6091 197.376 67.084 198.841 67.084V65.084ZM196.465 64.2257C195.867 63.585 195.557 62.7987 195.557 61.8H193.557C193.557 63.2653 194.032 64.551 195.002 65.5903L196.465 64.2257ZM195.557 61.8V48.948H193.557V61.8H195.557ZM195.542 49.1244L197.138 40.2204L195.169 39.8676L193.573 48.7716L195.542 49.1244ZM195.756 40.9614L202.728 43.9854L203.523 42.1506L196.551 39.1266L195.756 40.9614ZM202.125 43.068V61.8H204.125V43.068H202.125ZM202.125 61.8C202.125 62.7778 201.803 63.5561 201.158 64.2009L202.573 65.6151C203.608 64.5799 204.125 63.2862 204.125 61.8H202.125ZM201.158 64.2009C200.584 64.7757 199.841 65.084 198.841 65.084V67.084C200.306 67.084 201.579 66.6083 202.573 65.6151L201.158 64.2009ZM219.66 37.272H218.66V38.272H219.66V37.272ZM222.096 28.284L221.248 27.754L221.245 27.7589L222.096 28.284ZM228.816 21.9L228.327 21.0275L228.816 21.9ZM245.532 21.228L244.964 22.0512L244.98 22.0623L244.997 22.0728L245.532 21.228ZM247.464 25.092L246.496 24.841L246.49 24.8616L246.486 24.8825L247.464 25.092ZM246.456 26.94L247.114 27.6926L247.12 27.6874L246.456 26.94ZM244.86 27.696L244.681 26.7121L244.86 27.696ZM242.844 27.612L243.069 26.6376L243.056 26.6346L243.043 26.632L242.844 27.612ZM226.38 30.888L225.673 30.1809L225.667 30.1869L225.661 30.193L226.38 30.888ZM223.944 37.272V38.272H224.944V37.272H223.944ZM216.636 64.992L215.929 65.6991L215.943 65.7132L215.957 65.7268L216.636 64.992ZM216.636 21.144L217.343 21.8511L216.636 21.144ZM222.852 21.144L222.117 21.8223L222.144 21.8517L222.173 21.8788L222.852 21.144ZM222.852 64.908L222.145 64.2009L222.13 64.215L222.117 64.2297L222.852 64.908ZM220.66 37.272C220.66 34.0808 221.429 31.2697 222.947 28.8091L221.245 27.7589C219.515 30.5623 218.66 33.7432 218.66 37.272H220.66ZM222.944 28.814C224.533 26.2704 226.649 24.2594 229.304 22.7725L228.327 21.0275C225.382 22.6766 223.018 24.9216 221.248 27.754L222.944 28.814ZM229.304 22.7725C231.948 21.2921 234.858 20.548 238.056 20.548V18.548C234.533 18.548 231.284 19.3719 228.327 21.0275L229.304 22.7725ZM238.056 20.548C241.34 20.548 243.588 21.102 244.964 22.0512L246.099 20.4048C244.228 19.114 241.491 18.548 238.056 18.548V20.548ZM244.997 22.0728C245.739 22.543 246.165 23.0086 246.38 23.4392C246.585 23.848 246.637 24.2976 246.496 24.841L248.432 25.343C248.683 24.3744 248.609 23.424 248.169 22.5448C247.74 21.6874 247.004 20.977 246.067 20.3832L244.997 22.0728ZM246.486 24.8825C246.354 25.4989 246.108 25.9112 245.791 26.1926L247.12 27.6874C247.812 27.0728 248.238 26.2531 248.442 25.3015L246.486 24.8825ZM245.797 26.1874C245.492 26.4541 245.129 26.6307 244.681 26.7121L245.039 28.6799C245.823 28.5373 246.523 28.2099 247.114 27.6926L245.797 26.1874ZM244.681 26.7121C244.222 26.7956 243.689 26.7808 243.069 26.6376L242.619 28.5864C243.454 28.7792 244.266 28.8204 245.039 28.6799L244.681 26.7121ZM243.043 26.632C239.356 25.8832 235.993 25.815 232.973 26.4665L233.395 28.4215C236.086 27.841 239.163 27.8848 242.645 28.592L243.043 26.632ZM232.973 26.4665C229.972 27.1137 227.517 28.3366 225.673 30.1809L227.087 31.5951C228.603 30.0794 230.683 29.0063 233.395 28.4215L232.973 26.4665ZM225.661 30.193C223.837 32.0793 222.944 34.4657 222.944 37.272H224.944C224.944 34.9263 225.674 33.0567 227.099 31.583L225.661 30.193ZM223.944 36.272H219.66V38.272H223.944V36.272ZM219.744 65C218.56 65 217.8 64.7057 217.314 64.2572L215.957 65.7268C216.928 66.6223 218.239 67 219.744 67V65ZM217.343 64.2849C216.862 63.8039 216.544 63.0327 216.544 61.8H214.544C214.544 63.3673 214.954 64.7241 215.929 65.6991L217.343 64.2849ZM216.544 61.8V24.252H214.544V61.8H216.544ZM216.544 24.252C216.544 23.0889 216.855 22.3394 217.343 21.8511L215.929 20.4369C214.961 21.4046 214.544 22.7271 214.544 24.252H216.544ZM217.343 21.8511C217.831 21.3629 218.581 21.052 219.744 21.052V19.052C218.219 19.052 216.896 19.4691 215.929 20.4369L217.343 21.8511ZM219.744 21.052C220.983 21.052 221.702 21.3725 222.117 21.8223L223.587 20.4657C222.658 19.4595 221.305 19.052 219.744 19.052V21.052ZM222.173 21.8788C222.623 22.294 222.944 23.013 222.944 24.252H224.944C224.944 22.691 224.536 21.338 223.53 20.4092L222.173 21.8788ZM222.944 24.252V61.8H224.944V24.252H222.944ZM222.944 61.8C222.944 62.9631 222.633 63.7126 222.145 64.2009L223.559 65.6151C224.527 64.6474 224.944 63.3249 224.944 61.8H222.944ZM222.117 64.2297C221.702 64.6795 220.983 65 219.744 65V67C221.305 67 222.658 66.5925 223.587 65.5863L222.117 64.2297Z" fill="#45FEE8"/>
</svg>
